<?xml version="1.0" standalone="no"?>
<!DOCTYPE svg PUBLIC "-//W3C//DTD SVG 20010904//EN"
 "http://www.w3.org/TR/2001/REC-SVG-20010904/DTD/svg10.dtd">
<svg version="1.0" xmlns="http://www.w3.org/2000/svg"
 width="1300.000000pt" height="1300.000000pt" viewBox="0 0 1300.000000 1300.000000"
 preserveAspectRatio="xMidYMid meet">

<g transform="translate(0.000000,1300.000000) scale(0.100000,-0.100000)"
fill="#000000" stroke="none">
<path d="M6250 11699 c-176 -13 -301 -30 -419 -55 -64 -13 -136 -29 -162 -34
-71 -14 -306 -85 -364 -111 -11 -4 -63 -25 -115 -45 -190 -74 -406 -186 -600
-312 -47 -30 -87 -58 -90 -61 -3 -3 -25 -19 -50 -35 -47 -31 -65 -45 -190
-147 -140 -115 -380 -355 -453 -454 -4 -5 -19 -23 -34 -40 -93 -104 -291 -405
-375 -570 -26 -49 -53 -103 -62 -120 l-16 -30 58 -58 57 -57 45 92 c84 169
114 222 223 388 85 129 145 210 226 307 110 130 341 356 461 451 58 46 112 89
120 95 8 7 56 39 105 72 50 33 92 62 95 65 11 12 261 150 340 188 231 109 527
211 735 252 302 60 414 71 715 71 299 0 436 -14 730 -74 315 -65 719 -227
1008 -406 46 -28 86 -51 88 -51 3 0 22 -13 42 -28 20 -16 91 -69 157 -119 166
-125 181 -137 350 -308 149 -149 257 -275 345 -401 24 -33 130 -195 156 -236
48 -75 161 -294 184 -353 l11 -28 54 53 c30 30 55 61 55 70 0 8 -8 31 -18 50
-11 19 -44 82 -74 140 -103 197 -256 422 -420 617 -94 113 -318 334 -331 326
-5 -3 -7 -2 -4 4 11 17 -290 257 -411 328 -9 5 -30 19 -47 31 -82 56 -356 204
-378 204 -5 0 -29 -18 -53 -40 -24 -22 -51 -40 -60 -40 -8 0 -42 25 -74 56
-50 48 -59 62 -62 96 -3 40 -4 41 -68 64 -424 155 -974 229 -1430 193z"/>
<path d="M7760 11443 c0 -22 14 -42 58 -86 32 -31 62 -57 68 -57 20 0 41 35
42 70 1 33 -2 36 -60 63 -33 15 -71 30 -84 33 -21 5 -24 3 -24 -23z"/>
<path d="M6235 10950 c-93 -9 -213 -28 -315 -50 -25 -5 -73 -16 -108 -24 -35
-7 -65 -16 -67 -18 -2 -2 120 -127 271 -278 155 -155 278 -270 281 -263 6 17
197 273 203 273 6 -1 172 -224 221 -297 l34 -51 14 26 c13 27 48 84 83 134 35
51 18 42 -59 -32 -100 -97 -87 -79 25 33 76 76 85 89 75 105 -57 79 -68 115
-68 222 0 95 3 110 27 156 l27 52 -47 6 c-84 11 -494 15 -597 6z"/>
<path d="M5620 10819 c-274 -95 -523 -225 -745 -387 -33 -25 -59 -48 -58 -53
2 -5 0 -8 -5 -7 -4 1 -17 -4 -28 -12 -21 -13 -20 -15 35 -50 133 -87 193 -232
162 -391 -23 -113 -117 -227 -221 -266 -25 -9 -46 -17 -48 -18 -1 -1 5 -21 13
-45 21 -61 19 -184 -5 -261 -34 -112 -99 -198 -195 -261 -110 -71 -252 -95
-375 -63 -79 20 -99 31 -178 90 -35 26 -64 46 -66 44 -15 -17 -86 -265 -86
-299 0 -13 31 -28 118 -60 185 -68 421 -192 582 -306 74 -52 84 -52 140 0 35
33 58 46 78 46 31 0 68 -32 74 -65 2 -12 13 -21 25 -23 36 -5 75 -59 71 -99
-2 -30 2 -36 51 -69 l54 -37 -6 39 c-4 22 -7 58 -7 82 0 33 -4 42 -18 42 -9 0
-61 44 -115 98 l-98 98 62 62 c67 67 104 79 141 45 18 -16 19 -15 17 48 -2
143 44 588 81 779 65 332 164 639 281 871 61 124 150 279 159 279 13 0 220
-220 298 -319 71 -89 183 -249 222 -316 10 -16 26 -44 36 -62 l18 -31 39 76
c21 43 66 124 100 180 l60 104 -274 274 c-151 151 -281 274 -289 273 -8 0 -53
-14 -100 -30z"/>
<path d="M7560 10666 c0 -47 -56 -151 -109 -201 -74 -71 -150 -105 -238 -105
l-51 0 -61 -99 c-34 -55 -61 -103 -61 -107 0 -4 -6 -15 -14 -23 -16 -19 -69
-111 -91 -161 -15 -32 -14 -37 6 -85 11 -27 25 -54 29 -58 4 -5 30 3 57 16
142 72 309 46 424 -68 l44 -44 76 77 c42 42 102 97 133 121 43 34 55 48 51 65
-3 11 -21 95 -40 186 -61 287 -155 583 -155 486z"/>
<path d="M7920 10544 c14 -35 85 -323 99 -399 45 -243 74 -488 88 -745 l8
-135 25 40 c54 89 218 307 296 395 17 19 55 62 84 95 29 33 70 76 90 95 l38
35 -25 38 c-32 51 -292 311 -366 368 -33 24 -78 58 -100 76 -56 43 -233 163
-240 163 -4 0 -2 -12 3 -26z"/>
<path d="M5545 10126 c-32 -73 -72 -183 -96 -266 -37 -124 -77 -285 -84 -333
l-7 -48 38 16 c121 53 231 58 350 19 44 -15 86 -33 95 -40 8 -8 20 -14 26 -14
18 0 52 45 68 89 15 42 14 44 -16 100 -126 228 -143 256 -219 365 -30 43 -65
93 -76 110 -44 65 -51 65 -79 2z"/>
<path d="M4574 10081 c-28 -12 -56 -74 -48 -106 7 -28 45 -62 80 -71 26 -7 79
19 94 45 18 35 12 86 -14 110 -26 25 -80 35 -112 22z"/>
<path d="M6436 9848 c-54 -113 -96 -215 -122 -296 -13 -40 -12 -48 13 -108 14
-36 29 -62 33 -57 4 4 23 51 43 103 19 52 63 158 96 234 l60 140 -27 48 c-15
26 -30 48 -34 48 -4 0 -32 -51 -62 -112z"/>
<path d="M8773 9644 c-100 -101 -333 -392 -333 -415 0 -8 41 15 174 98 38 24
72 43 75 43 3 0 20 -53 38 -118 60 -219 85 -398 82 -573 l-2 -118 57 -57 c31
-31 63 -69 72 -85 14 -27 32 -38 35 -21 3 15 8 51 24 162 12 82 18 209 22 442
l4 326 -69 134 c-37 73 -82 155 -99 182 l-31 49 -49 -49z"/>
<path d="M3317 9663 c-20 -19 -111 -251 -161 -408 -107 -337 -157 -673 -157
-1050 0 -450 77 -872 228 -1255 17 -41 33 -84 37 -94 6 -17 14 -13 66 39 l59
58 -21 51 c-30 74 -107 320 -124 396 -68 304 -94 525 -94 810 0 192 20 428 49
585 20 111 63 294 85 360 13 38 31 95 40 125 22 67 60 168 89 233 l21 48 -55
55 c-30 30 -58 51 -62 47z"/>
<path d="M4184 9643 c-59 -34 -63 -38 -102 -116 -33 -66 9 -182 82 -226 75
-45 175 -34 239 27 97 94 65 264 -60 318 -45 19 -122 18 -159 -3z"/>
<path d="M9630 9595 l-53 -54 15 -38 c172 -410 258 -845 258 -1300 -1 -380
-55 -714 -175 -1077 l-46 -139 53 -54 c29 -29 55 -53 58 -53 16 0 109 274 156
460 74 291 104 537 104 865 0 385 -48 712 -152 1035 -51 161 -148 410 -158
410 -3 0 -30 -25 -60 -55z"/>
<path d="M7126 9573 c-21 -20 -26 -35 -24 -64 3 -53 27 -80 76 -86 49 -6 77 8
98 48 47 91 -77 176 -150 102z m14 -118 c13 -14 21 -25 18 -25 -2 0 -15 11
-28 25 -13 14 -21 25 -18 25 2 0 15 -11 28 -25z"/>
<path d="M5891 9466 c-11 -13 -11 -20 -3 -28 8 -8 13 -7 18 5 10 27 0 41 -15
23z"/>
<path d="M6688 9433 c-9 -27 -37 -106 -63 -178 -39 -108 -90 -263 -112 -337
-3 -10 4 -48 15 -85 84 -284 153 -746 173 -1160 12 -248 7 -485 -17 -773 l-4
-55 30 85 c64 179 120 430 172 780 9 58 13 212 13 490 0 432 -4 481 -60 791
-33 183 -104 460 -124 482 -4 4 -14 -14 -23 -40z"/>
<path d="M7680 9383 c-95 -132 -207 -361 -267 -543 -25 -80 -62 -225 -89 -356
-19 -90 -32 -547 -18 -601 l9 -32 45 67 c25 36 57 89 73 117 200 367 300 749
299 1145 0 85 -4 177 -9 203 l-8 49 -35 -49z"/>
<path d="M5545 9253 c-39 -10 -103 -63 -120 -100 -30 -61 -30 -121 -3 -172 63
-118 206 -148 299 -64 69 63 89 155 49 232 -19 39 -72 91 -92 91 -6 0 -60 -48
-120 -107 -60 -60 -112 -110 -116 -113 -16 -11 58 67 136 143 68 68 79 83 65
89 -20 8 -68 8 -98 1z"/>
<path d="M6162 8975 c-23 -110 -64 -438 -61 -500 0 -11 7 7 15 40 7 33 32 135
55 227 l41 168 -20 57 -19 58 -11 -50z"/>
<path d="M8436 8761 c-4 -7 -5 -15 -2 -18 9 -9 19 4 14 18 -4 11 -6 11 -12 0z"/>
<path d="M8328 8648 c-76 -87 -166 -208 -220 -299 -42 -69 -48 -86 -63 -190
-9 -63 -19 -118 -22 -122 -7 -11 229 -249 238 -240 14 14 109 301 109 328 0 7
-20 15 -45 17 -81 10 -142 78 -153 173 -5 47 13 89 57 134 43 44 145 66 190
41 16 -8 20 -5 25 22 3 17 6 62 6 101 0 55 -4 73 -17 83 -31 23 -48 15 -105
-48z"/>
<path d="M5280 8639 l0 -64 29 35 c38 46 38 50 2 72 l-31 20 0 -63z"/>
<path d="M4872 8627 l-33 -34 21 -26 c27 -34 45 -34 75 1 28 32 31 54 9 76
-23 23 -36 20 -72 -17z"/>
<path d="M4958 8519 c-10 -10 -18 -21 -18 -23 0 -7 46 -56 53 -56 10 0 1 94
-8 96 -6 1 -18 -6 -27 -17z"/>
<path d="M8796 8469 c-3 -18 -4 -34 -2 -36 2 -2 20 -3 41 -1 l36 3 -34 33 -34
33 -7 -32z"/>
<path d="M4687 8442 l-27 -29 25 -11 c39 -18 54 -15 67 13 8 19 8 28 -2 40
-18 22 -33 19 -63 -13z"/>
<path d="M5570 8463 c-38 -14 -60 -47 -60 -89 0 -61 24 -87 84 -88 41 -1 51 3
72 27 60 70 -11 181 -96 150z"/>
<path d="M3981 8378 c13 -133 94 -458 114 -458 5 0 32 23 59 50 46 48 86 64
101 41 3 -5 21 -7 40 -4 31 5 38 1 94 -58 34 -35 61 -70 61 -79 0 -18 -220
-240 -238 -240 -9 0 -11 -7 -7 -21 12 -36 135 -279 181 -359 65 -110 62 -104
154 -244 47 -70 90 -137 97 -149 6 -11 15 -22 20 -26 5 -3 22 -24 38 -46 42
-57 146 -179 159 -186 6 -4 31 -9 56 -12 75 -10 138 -45 207 -114 l64 -65 33
16 c19 9 42 16 52 16 11 0 -26 44 -102 123 -139 141 -232 259 -338 426 -72
114 -168 291 -213 396 -77 176 -163 497 -163 608 0 57 -45 126 -81 127 -9 0
-22 6 -28 13 -8 11 -5 19 13 36 l24 23 32 -34 32 -33 -4 29 c-2 25 -21 41
-118 107 -63 43 -133 88 -155 99 -22 11 -69 36 -105 55 -36 19 -70 35 -75 35
-7 0 -9 -24 -4 -72z"/>
<path d="M4791 8377 c-8 -10 0 -18 35 -35 l44 -22 -16 25 c-23 35 -49 48 -63
32z"/>
<path d="M9242 8263 c-6 -27 -18 -88 -26 -138 -9 -49 -37 -169 -62 -265 -25
-96 -49 -211 -54 -255 l-8 -80 32 -35 31 -35 -31 28 -31 28 -17 -42 c-9 -23
-30 -60 -45 -83 -16 -22 -36 -56 -45 -74 -16 -31 -16 -34 3 -60 11 -16 28 -48
37 -72 l18 -44 14 34 c81 197 140 427 181 715 12 82 27 425 18 425 -3 0 -10
-21 -15 -47z"/>
<path d="M6337 8134 c-43 -243 -87 -734 -87 -985 0 -100 3 -114 45 -240 73
-213 69 -211 88 -67 46 345 49 826 7 1168 -28 237 -32 245 -53 124z"/>
<path d="M8783 8143 c-21 -8 -15 -41 9 -49 27 -8 54 22 37 43 -12 13 -25 15
-46 6z"/>
<path d="M5303 8115 c3 -16 9 -55 13 -85 4 -34 14 -63 26 -77 l20 -22 40 50
c22 28 38 52 36 53 -65 41 -96 63 -116 85 l-24 26 5 -30z"/>
<path d="M3751 8002 c-2 -77 40 -335 79 -487 31 -119 85 -282 117 -355 12 -25
31 -70 44 -100 13 -30 43 -91 68 -135 24 -44 51 -93 59 -110 9 -16 28 -49 42
-72 l27 -42 33 34 c18 19 48 41 67 50 18 9 33 19 33 24 0 4 -18 33 -40 65 -22
31 -40 59 -40 62 0 3 -15 29 -33 57 -18 29 -45 70 -59 93 -40 63 -210 411
-242 494 -16 41 -35 89 -42 105 -19 45 -91 272 -107 340 -3 11 -5 1 -6 -23z"/>
<path d="M4155 7955 c-30 -31 -55 -60 -55 -64 0 -17 60 -184 82 -228 6 -13 17
-23 23 -23 20 0 45 35 45 62 0 38 90 128 128 128 33 0 68 32 56 52 -4 7 -31
37 -58 65 -44 46 -56 53 -86 51 -19 -1 -45 1 -58 6 -19 6 -31 -1 -77 -49z
m128 -76 c29 -40 13 -81 -37 -94 -35 -8 -40 -7 -62 18 -29 35 -30 57 -3 86 28
30 75 25 102 -10z"/>
<path d="M7987 7812 c-32 -163 -98 -444 -127 -537 -11 -33 -28 -91 -38 -130
-11 -38 -23 -79 -27 -90 -16 -42 124 122 191 224 16 24 36 54 44 67 77 115
215 387 205 405 -8 12 -205 203 -213 206 -4 2 -20 -64 -35 -145z"/>
<path d="M5623 7804 c-8 -20 19 -46 39 -39 19 7 31 32 22 46 -9 15 -54 10 -61
-7z"/>
<path d="M4850 7794 c0 -24 58 -195 97 -284 80 -183 283 -515 283 -462 0 6 -5
23 -11 39 -6 15 -35 122 -64 236 -29 119 -60 218 -70 230 -33 40 -132 151
-183 207 -41 44 -52 51 -52 34z"/>
<path d="M8656 7659 c-46 -55 -30 -111 42 -148 39 -20 55 -6 80 71 21 67 22
72 6 89 -12 13 -31 19 -60 19 -35 0 -47 -5 -68 -31z"/>
<path d="M7285 7194 c-41 -50 -94 -131 -156 -239 -108 -189 -207 -465 -259
-723 l-13 -62 78 -80 c43 -43 82 -77 86 -74 8 5 131 219 140 244 3 8 17 40 31
70 34 73 85 256 109 389 28 158 44 384 33 460 l-9 64 -40 -49z"/>
<path d="M8504 7171 c-109 -50 -144 -192 -72 -292 l31 -43 82 170 c45 93 80
172 78 177 -8 13 -78 7 -119 -12z"/>
<path d="M9614 6964 c-78 -222 -263 -549 -453 -799 -237 -313 -579 -621 -921
-827 -99 -60 -262 -147 -330 -176 -208 -90 -409 -164 -520 -191 -25 -6 -61
-16 -80 -21 -136 -37 -344 -70 -560 -90 -468 -42 -1029 44 -1495 230 -193 77
-479 230 -639 341 -27 19 -72 50 -100 69 -29 20 -61 44 -71 53 -11 9 -67 57
-125 106 -202 172 -400 387 -542 590 -37 53 -71 101 -75 106 -55 68 -188 312
-278 509 l-36 80 -54 -54 c-30 -30 -55 -59 -55 -65 0 -11 33 -86 71 -160 12
-22 39 -76 62 -120 22 -44 53 -99 69 -122 15 -23 28 -45 28 -48 0 -4 13 -25
29 -48 15 -23 35 -53 44 -67 262 -405 681 -802 1125 -1067 157 -93 176 -103
201 -103 11 0 33 -12 50 -26 68 -57 434 -196 696 -263 354 -91 848 -123 1245
-80 91 10 362 59 445 80 124 32 388 117 460 149 22 9 74 32 115 50 74 33 271
131 300 150 8 5 51 31 95 57 67 39 178 115 335 229 173 126 433 385 611 609
53 66 229 322 229 332 0 2 13 23 28 46 16 23 47 78 69 122 23 44 48 94 57 110
9 17 34 70 56 119 l41 90 -60 60 c-53 53 -61 58 -67 40z"/>
<path d="M7925 6560 c-51 -33 -271 -264 -292 -306 -9 -18 8 -198 19 -210 8 -8
100 121 168 236 58 98 146 287 138 295 -2 2 -17 -5 -33 -15z"/>
<path d="M4422 6541 c-8 -4 -12 -19 -10 -32 2 -18 9 -24 28 -24 28 0 39 27 20
50 -14 17 -20 18 -38 6z"/>
<path d="M4758 6245 c-3 -38 2 -57 23 -86 17 -25 27 -29 65 -29 24 0 44 2 44
5 0 4 -9 13 -89 90 -35 33 -41 36 -43 20z"/>
<path d="M5343 6174 l-42 -15 72 -57 c81 -64 222 -162 232 -162 4 0 5 27 3 60
-10 136 -139 220 -265 174z"/>
<path d="M6856 6142 c-18 -30 -34 -386 -17 -396 8 -5 109 138 157 222 l19 33
-77 75 c-42 41 -79 71 -82 66z"/>
<path d="M7382 5801 c-10 -29 -10 -31 8 -21 22 12 24 18 11 38 -6 10 -11 6
-19 -17z"/>
<path d="M4530 4141 l-45 -6 0 -370 0 -370 100 -7 c135 -10 288 4 353 32 60
26 114 81 132 135 28 84 -16 192 -91 224 -21 9 -39 18 -39 21 0 3 18 15 41 28
47 27 69 70 69 137 0 87 -51 143 -155 170 -60 15 -268 19 -365 6z m298 -157
c29 -19 30 -73 2 -99 -20 -18 -90 -34 -122 -27 -15 3 -18 15 -18 72 0 63 2 69
23 73 32 7 89 -2 115 -19z m-8 -287 c62 -31 60 -121 -4 -151 -19 -9 -55 -16
-80 -16 l-46 0 0 90 0 90 53 0 c28 0 63 -6 77 -13z"/>
<path d="M5190 3770 l0 -380 255 0 255 0 0 85 0 85 -155 0 -156 0 3 68 3 67
133 3 132 3 0 79 0 80 -135 0 -135 0 0 60 0 60 145 0 145 0 0 85 0 85 -245 0
-245 0 0 -380z"/>
<path d="M5933 4008 c-23 -79 -71 -244 -107 -367 -36 -124 -66 -231 -66 -238
0 -11 21 -13 102 -11 l102 3 21 85 21 85 96 3 96 3 15 -53 c9 -29 20 -69 24
-88 l9 -35 108 -3 109 -3 -7 28 c-11 51 -160 557 -197 671 l-21 62 -132 0
-133 0 -40 -142z m200 -135 c15 -60 30 -118 33 -130 6 -22 4 -23 -63 -23 l-70
0 31 130 c17 71 33 130 36 130 3 0 18 -48 33 -107z"/>
<path d="M6522 3878 l3 -273 31 -66 c32 -66 63 -98 134 -135 28 -15 58 -18
146 -19 103 0 114 2 170 30 43 22 68 43 91 79 57 84 63 121 63 403 l0 254 -97
-3 -98 -3 -5 -260 c-3 -181 -9 -267 -17 -282 -39 -67 -123 -84 -173 -35 -44
44 -50 86 -50 345 l0 237 -101 0 -100 0 3 -272z"/>
<path d="M7257 4143 c-4 -3 -7 -41 -7 -84 l0 -78 98 -3 97 -3 3 -292 2 -293
100 0 100 0 0 295 0 295 95 0 95 0 0 85 0 84 -288 1 c-159 0 -291 -3 -295 -7z"/>
<path d="M7923 4142 l-43 -3 66 -127 c37 -70 88 -168 115 -218 l49 -91 0 -157
0 -156 105 0 105 0 0 160 0 159 99 178 c54 98 108 194 120 213 11 19 21 38 21
43 0 12 -218 8 -226 -4 -3 -6 -30 -76 -58 -155 l-52 -145 -58 153 -59 153 -71
0 c-39 1 -90 -1 -113 -3z"/>
<path d="M5001 3187 c-58 -14 -127 -80 -137 -131 -11 -59 1 -120 29 -158 26
-33 96 -71 218 -118 68 -26 108 -64 119 -116 11 -47 -1 -108 -27 -136 -62 -68
-200 -81 -307 -29 -41 21 -55 16 -56 -17 0 -21 90 -53 165 -59 180 -14 295 81
283 231 -8 94 -59 142 -207 196 -135 48 -179 97 -168 183 11 84 109 135 224
117 28 -5 62 -14 74 -20 17 -10 23 -9 30 1 17 27 8 38 -43 54 -58 17 -131 18
-197 2z"/>
<path d="M6945 3190 c-3 -5 -12 -7 -19 -4 -47 18 -194 -72 -243 -148 -61 -96
-82 -239 -52 -351 52 -198 272 -312 478 -248 107 33 185 106 236 221 16 36 20
66 20 160 0 108 -2 119 -30 174 -52 103 -136 169 -247 195 -58 14 -135 14
-143 1z m195 -73 c122 -60 176 -167 168 -331 -8 -143 -65 -237 -177 -289 -156
-73 -342 -14 -416 133 -72 143 -46 339 59 438 44 42 114 77 161 81 22 2 42 5
44 7 11 11 105 -12 161 -39z"/>
<path d="M5680 3171 c-12 -22 -189 -458 -225 -556 -13 -33 -35 -86 -49 -119
-14 -32 -26 -60 -26 -62 0 -2 13 -4 28 -4 26 0 31 7 60 78 17 42 41 103 52
135 l21 57 168 0 168 0 42 -107 c57 -149 62 -157 94 -161 15 -2 27 -1 27 3 0
3 -13 36 -29 73 -15 37 -45 110 -65 162 -190 482 -205 515 -230 518 -17 2 -28
-3 -36 -17z m90 -201 c29 -74 61 -156 71 -182 l19 -48 -146 0 -146 0 7 28 c3
15 33 93 66 175 32 81 59 155 59 164 0 32 17 -2 70 -137z"/>
<path d="M6165 3178 c-3 -7 -4 -177 -2 -378 l2 -365 213 -3 212 -3 0 26 0 25
-178 0 c-99 0 -182 -4 -187 -9 -6 -6 -10 123 -10 352 l0 362 -23 3 c-12 2 -24
-3 -27 -10z"/>
<path d="M7515 3178 c-3 -7 -4 -177 -3 -378 l3 -365 25 0 25 0 -1 337 c-1 374
-6 353 59 253 22 -35 108 -154 172 -240 11 -14 52 -70 92 -123 164 -222 174
-233 197 -230 l21 3 0 375 0 375 -25 0 -25 0 0 -338 c0 -185 -1 -337 -2 -337
-1 0 -10 14 -18 31 -9 17 -35 56 -59 87 -23 31 -69 93 -101 137 -285 390 -308
420 -333 423 -12 2 -24 -3 -27 -10z"/>
</g>
</svg>
